<svg xmlns="http://www.w3.org/2000/svg" viewBox="0 0 880 813.325"><g data-name="Group 83" transform="translate(-519.736 -95.892)"><path d="M1399.736 388.401v209.908c0 171.111-138.711 309.815-309.814 309.806H519.736V698.207c0-112.167 59.614-210.421 148.9-264.789a307.506 307.506 0 0 1 48.349-23.927 304.183 304.183 0 0 1 30.182-10.007c.2-.066.409-.124.608-.171q4.533-1.24 9.123-2.338c.171-.047.333-.086.5-.124a309.914 309.914 0 0 1 57.466-8.106c2.29-.1 4.581-.19 6.89-.238a71.504 71.504 0 0 1 2.509-.048q2.623-.057 5.274-.057Z" data-name="Path 1317"/><g data-name="Group 82"><circle cx="73.736" cy="73.736" r="73.736" fill="#6c63ff" data-name="Ellipse 241" transform="translate(1192.498 97.316)"/><path fill="#3f3d56" d="M1265.734 207.788c-75.14-.007-134-13.629-134-31.012 0-10.422 20.858-19.719 57.222-25.506a1 1 0 0 1 .331 1.972h-.013c-34.255 5.452-55.536 14.469-55.537 23.531 0 15.72 60.446 29.005 132 29.012s132-13.268 132-28.988c0-9.1-21.414-18.143-55.888-23.6a1 1 0 1 1 .3-1.977h.01c36.591 5.79 57.576 15.111 57.575 25.574.001 17.389-58.86 31.001-134 30.994Z" data-name="Path 1259"/><path fill="#3f3d56" d="M1271.089 195.876c-64.749 38.126-122.378 56.258-131.2 41.278-5.288-8.981 7.966-27.576 36.363-51.017a1 1 0 0 1 1.286 1.532l-.01.008c-26.75 22.082-40.511 40.65-35.913 48.459 7.976 13.546 66.8-5.682 128.461-41.987s107.008-78.42 99.031-91.966c-4.618-7.842-27.659-4.766-60.132 8.028a1 1 0 0 1-.743-1.857h.007c34.467-13.58 57.28-16.2 62.588-7.182 8.823 14.979-34.989 56.578-99.738 94.704Z" data-name="Path 1260"/></g><path fill="#fff" d="M742.585 382.883h-1.82v-1.82a2.34 2.34 0 0 0-4.68-.009v1.829h-1.82a2.34 2.34 0 1 0-.008 4.68h1.828v1.82a2.34 2.34 0 1 0 4.68.009v-1.829h1.82a2.34 2.34 0 0 0 .008-4.68Z" data-name="Path 1281"/><path fill="#6c63ff" d="M1399.736 388.401v209.908c0 171.111-138.711 309.815-309.814 309.806H519.736V698.207c0-112.167 59.614-210.421 148.9-264.789a307.506 307.506 0 0 1 48.349-23.927 304.183 304.183 0 0 1 30.182-10.007c.2-.066.409-.124.608-.171q4.533-1.24 9.123-2.338c.171-.047.333-.086.5-.124a309.914 309.914 0 0 1 57.466-8.106c2.29-.1 4.581-.19 6.89-.238a71.504 71.504 0 0 1 2.509-.048q2.623-.057 5.274-.057Z" data-name="Path 1283" opacity=".34"/><path fill="#f2f2f2" d="M1340.807 909.217H519.746c0-.274.009-.54.029-.814 2.528-55.255 185.342-99.86 410.5-99.86 150.417 0 281.942 19.9 353.435 49.6 36.047 14.971 56.84 32.426 57.097 51.074Z" data-name="Path 1284"/><g data-name="Group 76" opacity=".1"><path d="M736.409 908.266a6.308 6.308 0 0 1-.076.95h-151.9a6.3 6.3 0 0 1-.076-.95.816.816 0 0 1 .01-.152c.285-11.594 34.212-20.964 76.016-20.964s75.731 9.37 76.016 20.964a.817.817 0 0 1 .009.152Z" data-name="Path 1285"/></g><g data-name="Group 77" opacity=".1" transform="translate(858.052 808.543)"><ellipse cx="76.026" cy="21.118" data-name="Ellipse 251" rx="76.026" ry="21.118"/></g><g data-name="Group 78" opacity=".1"><path d="M728.808 908.266a5.356 5.356 0 0 1-.086.95H592.046a5.353 5.353 0 0 1-.085-.95.815.815 0 0 1 .009-.152c.285-10.435 30.809-18.854 68.414-18.854s68.129 8.42 68.414 18.854a.814.814 0 0 1 .009.152Z" data-name="Path 1286"/></g><g data-name="Group 79" opacity=".1" transform="translate(865.654 810.655)"><ellipse cx="68.423" cy="19.006" data-name="Ellipse 252" rx="68.423" ry="19.006"/></g><g data-name="Group 80" opacity=".1" transform="translate(1170.518 868.828)"><ellipse cx="49.607" cy="13.78" data-name="Ellipse 253" rx="49.607" ry="13.78"/></g><g data-name="Group 81" opacity=".1" transform="translate(1175.479 870.207)"><ellipse cx="44.646" cy="12.402" data-name="Ellipse 254" rx="44.646" ry="12.402"/></g><circle cx="6.652" cy="6.652" r="6.652" fill="#f2f2f2" data-name="Ellipse 255" transform="translate(644.229 466.366)"/><circle cx="6.652" cy="6.652" r="6.652" fill="#f2f2f2" data-name="Ellipse 256" transform="translate(1216.324 726.755)"/><circle cx="3.801" cy="3.801" r="3.801" fill="#6c63ff" data-name="Ellipse 258" transform="translate(1235.33 475.87)"/><circle cx="3.801" cy="3.801" r="3.801" fill="#6c63ff" data-name="Ellipse 259" transform="translate(662.285 665.934)"/><path fill="#f2f2f2" d="M609.066 749.869h-1.73v-1.732h-.338v1.732h-1.732v.338h1.731v1.73h.338v-1.73h1.731Z" data-name="Path 1287"/><path fill="#f2f2f2" d="M1165.005 609.22h-1.73v-1.731h-.338v1.731h-1.732v.338h1.732v1.731h.338v-1.73h1.73Z" data-name="Path 1288"/><path fill="#f2f2f2" d="M1308.504 580.71h-1.73v-1.731h-.338v1.731h-1.732v.338h1.732v1.731h.338v-1.73h1.73Z" data-name="Path 1289"/><path fill="#f2f2f2" d="M999.649 656.736h-1.73v-1.731h-.338v1.731h-1.732v.338h1.731v1.731h.338v-1.73h1.731Z" data-name="Path 1290"/><path fill="#f2f2f2" d="M1266.69 666.241h-1.73v-1.732h-.338v1.732h-1.732v.338h1.732v1.73h.338v-1.73h1.73Z" data-name="Path 1291"/><path fill="#f2f2f2" d="M944.529 707.105h-1.73v-1.732h-.338v1.732h-1.732v.338h1.732v1.73h.338v-1.73h1.73Z" data-name="Path 1292"/><path fill="#f2f2f2" d="M1066.171 709.005h-1.73v-1.732h-.338v1.732h-1.732v.338h1.732v1.73h.338v-1.73h1.73Z" data-name="Path 1293"/><path fill="#f2f2f2" d="M610.966 547.449h-1.73v-1.731h-.338v1.731h-1.732v.338h1.731v1.731h.338v-1.73h1.731Z" data-name="Path 1294"/><path fill="#f2f2f2" d="M976.841 532.244h-1.73v-1.731h-.338v1.731h-1.732v.338h1.731v1.731h.338v-1.73h1.731Z" data-name="Path 1295"/><path fill="#f2f2f2" d="M1132.694 479.026h-1.73v-1.731h-.338v1.731h-1.732v.338h1.732v1.731h.338v-1.73h1.73Z" data-name="Path 1296"/><path fill="#f2f2f2" d="M1115.588 495.182h-1.73v-1.732h-.338v1.732h-1.732v.338h1.732v1.73h.338v-1.73h1.73Z" data-name="Path 1297"/><circle cx="3.801" cy="3.801" r="3.801" fill="#f2f2f2" data-name="Ellipse 260" transform="translate(1044.315 447.36)"/><path fill="#6c63ff" d="M1323.721 388.401h-1.9a78.007 78.007 0 0 0 77.917 77.489v-1.9a76.1 76.1 0 0 1-76.017-75.589Z" data-name="Path 1298"/><path fill="#6c63ff" d="M1288.558 388.401h-1.9a113.2 113.2 0 0 0 113.079 112.651v-1.9a111.3 111.3 0 0 1-111.179-110.751Z" data-name="Path 1299"/><path fill="#6c63ff" d="M1252.435 388.401h-1.9c.238 82.07 67.074 148.764 149.2 148.764v-1.9c-81.081-.001-147.062-65.839-147.3-146.864Z" data-name="Path 1300"/><path fill="#090814" d="M1024.671 176.143s-24.418-21.893-57.258 19.367-84.2 61.468-95.992 77.467c0 0 48.838-20.209 65.679-28.629s16-6.736 16-6.736-22.735 16-26.945 32-.842 29.471-8.42 45.47 144.83 10.946 144.83 10.946 15.157-26.1 10.946-53.048-1.686-93.469-48.84-96.837Z" data-name="Path 1301"/><path fill="#ffb9b9" d="M978.484 245.017s5.31 37.169-17.447 45.513-14.413 19.722-14.413 19.722l34.135 16.688 36.411-11.378 12.137-18.205s-19.722-4.551-14.413-18.205 6.827-18.205 6.827-18.205Z" data-name="Path 1302"/><path fill="#ffb9b9" d="M1074.062 351.214s-5.31 69.787-3.793 72.821 0 108.473 0 108.473 10.62 56.891-3.034 59.926-10.62-63.718-10.62-63.718l-13.654-87.992 1.517-87.234Z" data-name="Path 1304"/><path d="M1074.062 351.214s-5.31 69.787-3.793 72.821 0 108.473 0 108.473 10.62 56.891-3.034 59.926-10.62-63.718-10.62-63.718l-13.654-87.992 1.517-87.234Z" data-name="Path 1305" opacity=".1"/><path fill="#ffb9b9" d="M926.144 561.333s-25.032 94.819-24.273 141.091 10.62 110.749 10.62 110.749 1.517 28.066-.759 31.1 11.378 15.93 11.378 15.93l14.413-8.344 5.31-6.068v-5.31s-8.344-25.791-1.517-46.272 10.62-72.062 3.793-87.992l47.03-139.574Z" data-name="Path 1306"/><path fill="#090814" d="M924.627 848.066s-9.1-11.378-15.171-7.586-15.93 29.584-15.93 29.584-34.135 32.618-9.858 34.138 34.893-6.827 37.928-12.9 31.1-22 31.1-22-3.034-28.825-7.585-29.584-11.382 11.384-11.382 11.384Z" data-name="Path 1307"/><path fill="#ffb9b9" d="M1008.826 567.401v94.061a290.858 290.858 0 0 0 2.276 34.135c2.276 16.688-12.9 141.091-12.9 141.091l1.517 22 18.964-1.517 2.276-18.964 27.308-83.441s9.1-50.823 4.551-69.787 23.52-140.335 23.52-140.335Z" data-name="Path 1308"/><path fill="#090814" d="m993.656 853.376 5.618-1.221s4.243-9.4 9.553-7.123a57.265 57.265 0 0 1 10.558 6.327l2.337 4.293s5.31 11.378 12.137 18.964 14.413 24.274 3.034 25.791-26.549 2.276-31.1-1.517-1.517-9.861-6.068-11.378-8.344-6.068-7.585-7.586 1.516-26.55 1.516-26.55Z" data-name="Path 1309"/><circle cx="33.713" cy="33.713" r="33.713" fill="#ffb9b9" data-name="Ellipse 261" transform="translate(975.113 203.718)"/><path fill="#6c63ff" d="m945.108 296.598 10.02-3.5s-3.951 6.532 17.288 10.325 43.235 5.136 53.1-7.293c0 0 3.794-1.809 9.1 3.5s8.344 3.793 8.344 3.793l-3.793 19.722-7.586 36.411-9.861 27.308-28.066-6.068-30.342-22-11.378-29.584v-27.304Z" data-name="Path 1310"/><path fill="#6c63ff" d="m1037.651 307.218 7.586-5.31s25.791 4.551 27.308 16.688l-19.723 37.93a43.18 43.18 0 0 1-.759 32.618c-7.586 17.447-6.827 21.24-6.827 21.24l-5.31 22.757-96.336 7.585s-3.793-9.1-5.31-10.62-1.517-6.827 0-6.827 0-2.276-1.517-4.551-2.276-3.034 0-6.068-3.793-30.342-3.793-30.342v-29.587l-25.787-34.135s9.1-13.654 13.654-15.171 26.2-7.5 26.2-7.5l4.9 7.213 6.827 54.9 9.861 33.376 41.521-7.055 16.129-27.08 10.62-31.859Z" data-name="Path 1311"/><path fill="#6c63ff" d="m1066.476 314.045 6.068 4.551s5.31 42.479 3.793 45.513-28.066 6.068-28.825 4.551 18.964-54.615 18.964-54.615Z" data-name="Path 1312"/><path fill="#090814" d="m941.316 292.805 7.586 50.064s-6.827 74.338-5.31 89.509l1.517 4.551s-3.034-1.517-3.793 1.517 0 12.9 0 12.9-4.551 4.551-6.068 29.584-19.722 84.958-12.9 87.234 47.789 13.654 69.787 11.378 100.892-28.829 100.136-35.656-38.686-103.163-38.686-103.163-6.827-11.378-6.827-12.9 9.1-7.586 6.827-13.654-14.414-69.783-14.414-69.783l8.344-45.513-11.378-3.034-8.344 44s-32.618 15.93-66.753 1.517l-7.586-51.582Z" data-name="Path 1313"/><path fill="#090814" d="M977.811 213.241s56.133 38.686 71.3 21.239-26.549-32.618-26.549-32.618l-34.893-3.793Z" data-name="Path 1314"/><path fill="#ffb9b9" d="M901.869 360.317s5.31 69.787 3.793 72.821 0 108.473 0 108.473-10.62 56.891 3.034 59.926 10.62-63.718 10.62-63.718l13.653-87.993-1.517-87.234Z" data-name="Path 1315"/><path fill="#6c63ff" d="m913.246 316.32-6.068 2.276s-11.378 47.789-8.344 47.789 39.445 4.551 39.445 3.034-6.827-38.686-6.827-38.686Z" data-name="Path 1316"/><circle cx="9.773" cy="9.773" r="9.773" fill="#6c63ff" data-name="Ellipse 262" transform="translate(744.93 561.333)"/><circle cx="9.773" cy="9.773" r="9.773" fill="#6c63ff" data-name="Ellipse 263" transform="translate(1163.105 628.711)"/></g></svg>